<?xml version="1.0" encoding="UTF-8" standalone="no"?>
<!DOCTYPE svg PUBLIC "-//W3C//DTD SVG 1.1//EN"
 "http://www.w3.org/Graphics/SVG/1.1/DTD/svg11.dtd">
<!-- Generated by graphviz version 2.43.0 (0)
 -->
<!-- Title: models_diagram Pages: 1 -->
<svg width="2556pt" height="1086pt"
 viewBox="0.00 0.00 2556.00 1086.00" xmlns="http://www.w3.org/2000/svg" xmlns:xlink="http://www.w3.org/1999/xlink">
<g id="graph0" class="graph" transform="scale(1 1) rotate(0) translate(4 1082)">
<title>models_diagram</title>
<polygon fill="transparent" stroke="transparent" points="-4,4 -4,-1082 2552,-1082 2552,4 -4,4"/>
<!-- _diagram_info -->
<g id="node1" class="node">
<title>_diagram_info</title>
<text text-anchor="start" x="8" y="-936.6" font-family="Times,serif" font-size="13.00">Models diagram</text>
<text text-anchor="start" x="8" y="-922.6" font-family="Times,serif" font-size="13.00">Date: Aug 24 2024 &#45; 00:37</text>
<text text-anchor="start" x="8" y="-908.6" font-family="Times,serif" font-size="13.00">Migration version: 20240822202434</text>
<text text-anchor="start" x="8" y="-894.6" font-family="Times,serif" font-size="13.00">Generated by RailRoady 1.6.0</text>
<text text-anchor="start" x="8" y="-880.6" font-family="Times,serif" font-size="13.00">http://railroady.prestonlee.com</text>
</g>
<!-- Admin -->
<g id="node2" class="node">
<title>Admin</title>
<path fill="none" stroke="black" d="M851,-746.5C851,-746.5 1252,-746.5 1252,-746.5 1258,-746.5 1264,-752.5 1264,-758.5 1264,-758.5 1264,-1065.5 1264,-1065.5 1264,-1071.5 1258,-1077.5 1252,-1077.5 1252,-1077.5 851,-1077.5 851,-1077.5 845,-1077.5 839,-1071.5 839,-1065.5 839,-1065.5 839,-758.5 839,-758.5 839,-752.5 845,-746.5 851,-746.5"/>
<text text-anchor="middle" x="1051.5" y="-1062.3" font-family="Times,serif" font-size="14.00">Admin</text>
<polyline fill="none" stroke="black" points="839,-1054.5 1264,-1054.5 "/>
<text text-anchor="start" x="847" y="-1039.3" font-family="Times,serif" font-size="14.00">id :bigint</text>
<text text-anchor="start" x="847" y="-1024.3" font-family="Times,serif" font-size="14.00">email :character varying</text>
<text text-anchor="start" x="847" y="-1009.3" font-family="Times,serif" font-size="14.00">encrypted_password :character varying</text>
<text text-anchor="start" x="847" y="-994.3" font-family="Times,serif" font-size="14.00">reset_password_token :character varying</text>
<text text-anchor="start" x="847" y="-979.3" font-family="Times,serif" font-size="14.00">reset_password_sent_at :timestamp(6) without time zone</text>
<text text-anchor="start" x="847" y="-964.3" font-family="Times,serif" font-size="14.00">remember_created_at :timestamp(6) without time zone</text>
<text text-anchor="start" x="847" y="-949.3" font-family="Times,serif" font-size="14.00">sign_in_count :integer</text>
<text text-anchor="start" x="847" y="-934.3" font-family="Times,serif" font-size="14.00">current_sign_in_at :timestamp(6) without time zone</text>
<text text-anchor="start" x="847" y="-919.3" font-family="Times,serif" font-size="14.00">last_sign_in_at :timestamp(6) without time zone</text>
<text text-anchor="start" x="847" y="-904.3" font-family="Times,serif" font-size="14.00">current_sign_in_ip :character varying</text>
<text text-anchor="start" x="847" y="-889.3" font-family="Times,serif" font-size="14.00">last_sign_in_ip :character varying</text>
<text text-anchor="start" x="847" y="-874.3" font-family="Times,serif" font-size="14.00">confirmation_token :character varying</text>
<text text-anchor="start" x="847" y="-859.3" font-family="Times,serif" font-size="14.00">confirmed_at :timestamp(6) without time zone</text>
<text text-anchor="start" x="847" y="-844.3" font-family="Times,serif" font-size="14.00">confirmation_sent_at :timestamp(6) without time zone</text>
<text text-anchor="start" x="847" y="-829.3" font-family="Times,serif" font-size="14.00">unconfirmed_email :character varying</text>
<text text-anchor="start" x="847" y="-814.3" font-family="Times,serif" font-size="14.00">failed_attempts :integer</text>
<text text-anchor="start" x="847" y="-799.3" font-family="Times,serif" font-size="14.00">unlock_token :character varying</text>
<text text-anchor="start" x="847" y="-784.3" font-family="Times,serif" font-size="14.00">locked_at :timestamp(6) without time zone</text>
<text text-anchor="start" x="847" y="-769.3" font-family="Times,serif" font-size="14.00">created_at :timestamp(6) without time zone</text>
<text text-anchor="start" x="847" y="-754.3" font-family="Times,serif" font-size="14.00">updated_at :timestamp(6) without time zone</text>
</g>
<!-- BankAccount -->
<g id="node4" class="node">
<title>BankAccount</title>
<path fill="none" stroke="black" d="M543,-557.5C543,-557.5 854,-557.5 854,-557.5 860,-557.5 866,-563.5 866,-569.5 866,-569.5 866,-681.5 866,-681.5 866,-687.5 860,-693.5 854,-693.5 854,-693.5 543,-693.5 543,-693.5 537,-693.5 531,-687.5 531,-681.5 531,-681.5 531,-569.5 531,-569.5 531,-563.5 537,-557.5 543,-557.5"/>
<text text-anchor="middle" x="698.5" y="-678.3" font-family="Times,serif" font-size="14.00">BankAccount</text>
<polyline fill="none" stroke="black" points="531,-670.5 866,-670.5 "/>
<text text-anchor="start" x="539" y="-655.3" font-family="Times,serif" font-size="14.00">id :bigint</text>
<text text-anchor="start" x="539" y="-640.3" font-family="Times,serif" font-size="14.00">user_id :bigint</text>
<text text-anchor="start" x="539" y="-625.3" font-family="Times,serif" font-size="14.00">payout_channel_id :bigint</text>
<text text-anchor="start" x="539" y="-610.3" font-family="Times,serif" font-size="14.00">name :character varying</text>
<text text-anchor="start" x="539" y="-595.3" font-family="Times,serif" font-size="14.00">number :character varying</text>
<text text-anchor="start" x="539" y="-580.3" font-family="Times,serif" font-size="14.00">created_at :timestamp(6) without time zone</text>
<text text-anchor="start" x="539" y="-565.3" font-family="Times,serif" font-size="14.00">updated_at :timestamp(6) without time zone</text>
</g>
<!-- Admin&#45;&gt;BankAccount -->
<g id="edge5" class="edge">
<title>Admin&#45;&gt;BankAccount</title>
<path fill="none" stroke="#125364" d="M839.38,-740.05C822.13,-726.14 805.34,-712.61 789.73,-700.03"/>
<polygon fill="#125364" stroke="#125364" points="839.39,-740.05 844.36,-749.83 843.29,-743.19 847.18,-746.33 847.18,-746.33 847.18,-746.33 843.29,-743.19 850,-742.83 839.39,-740.05 839.39,-740.05"/>
<polygon fill="#125364" stroke="#125364" points="789.46,-699.81 784.5,-690.03 785.57,-696.67 781.68,-693.54 781.68,-693.54 781.68,-693.54 785.57,-696.67 778.85,-697.04 789.46,-699.81 789.46,-699.81"/>
</g>
<!-- Patner -->
<g id="node10" class="node">
<title>Patner</title>
<path fill="none" stroke="black" d="M1249,-572.5C1249,-572.5 1560,-572.5 1560,-572.5 1566,-572.5 1572,-578.5 1572,-584.5 1572,-584.5 1572,-666.5 1572,-666.5 1572,-672.5 1566,-678.5 1560,-678.5 1560,-678.5 1249,-678.5 1249,-678.5 1243,-678.5 1237,-672.5 1237,-666.5 1237,-666.5 1237,-584.5 1237,-584.5 1237,-578.5 1243,-572.5 1249,-572.5"/>
<text text-anchor="middle" x="1404.5" y="-663.3" font-family="Times,serif" font-size="14.00">Patner</text>
<polyline fill="none" stroke="black" points="1237,-655.5 1572,-655.5 "/>
<text text-anchor="start" x="1245" y="-640.3" font-family="Times,serif" font-size="14.00">id :bigint</text>
<text text-anchor="start" x="1245" y="-625.3" font-family="Times,serif" font-size="14.00">name :character varying</text>
<text text-anchor="start" x="1245" y="-610.3" font-family="Times,serif" font-size="14.00">code :character varying</text>
<text text-anchor="start" x="1245" y="-595.3" font-family="Times,serif" font-size="14.00">created_at :timestamp(6) without time zone</text>
<text text-anchor="start" x="1245" y="-580.3" font-family="Times,serif" font-size="14.00">updated_at :timestamp(6) without time zone</text>
</g>
<!-- Admin&#45;&gt;Patner -->
<g id="edge4" class="edge">
<title>Admin&#45;&gt;Patner</title>
<path fill="none" stroke="#112272" d="M1263.61,-740.05C1287.92,-720.46 1311.29,-701.63 1331.76,-685.12"/>
<polygon fill="#112272" stroke="#112272" points="1263.61,-740.05 1253,-742.83 1259.71,-743.19 1255.82,-746.33 1255.82,-746.33 1255.82,-746.33 1259.71,-743.19 1258.64,-749.83 1263.61,-740.05 1263.61,-740.05"/>
<polygon fill="#112272" stroke="#112272" points="1331.97,-684.95 1342.58,-682.18 1335.87,-681.82 1339.76,-678.68 1339.76,-678.68 1339.76,-678.68 1335.87,-681.82 1336.94,-675.17 1331.97,-684.95 1331.97,-684.95"/>
</g>
<!-- Role -->
<g id="node12" class="node">
<title>Role</title>
<path fill="none" stroke="black" d="M896,-565C896,-565 1207,-565 1207,-565 1213,-565 1219,-571 1219,-577 1219,-577 1219,-674 1219,-674 1219,-680 1213,-686 1207,-686 1207,-686 896,-686 896,-686 890,-686 884,-680 884,-674 884,-674 884,-577 884,-577 884,-571 890,-565 896,-565"/>
<text text-anchor="middle" x="1051.5" y="-670.8" font-family="Times,serif" font-size="14.00">Role</text>
<polyline fill="none" stroke="black" points="884,-663 1219,-663 "/>
<text text-anchor="start" x="892" y="-647.8" font-family="Times,serif" font-size="14.00">id :bigint</text>
<text text-anchor="start" x="892" y="-632.8" font-family="Times,serif" font-size="14.00">name :character varying</text>
<text text-anchor="start" x="892" y="-617.8" font-family="Times,serif" font-size="14.00">resource_type :character varying</text>
<text text-anchor="start" x="892" y="-602.8" font-family="Times,serif" font-size="14.00">resource_id :bigint</text>
<text text-anchor="start" x="892" y="-587.8" font-family="Times,serif" font-size="14.00">created_at :timestamp(6) without time zone</text>
<text text-anchor="start" x="892" y="-572.8" font-family="Times,serif" font-size="14.00">updated_at :timestamp(6) without time zone</text>
</g>
<!-- Admin&#45;&gt;Role -->
<g id="edge1" class="edge">
<title>Admin&#45;&gt;Role</title>
<path fill="none" stroke="#38f6f8" d="M1051.5,-735.87C1051.5,-722.09 1051.5,-708.75 1051.5,-696.39"/>
<polygon fill="#38f6f8" stroke="#38f6f8" points="1051.5,-736.33 1047,-746.33 1051.5,-741.33 1051.5,-746.33 1051.5,-746.33 1051.5,-746.33 1051.5,-741.33 1056,-746.33 1051.5,-736.33 1051.5,-736.33"/>
<polygon fill="#38f6f8" stroke="#38f6f8" points="1051.5,-696.26 1056,-686.26 1051.5,-691.26 1051.5,-686.26 1051.5,-686.26 1051.5,-686.26 1051.5,-691.26 1047,-686.26 1051.5,-696.26 1051.5,-696.26"/>
</g>
<!-- UserInformation -->
<g id="node14" class="node">
<title>UserInformation</title>
<path fill="none" stroke="black" d="M347,-0.5C347,-0.5 658,-0.5 658,-0.5 664,-0.5 670,-6.5 670,-12.5 670,-12.5 670,-109.5 670,-109.5 670,-115.5 664,-121.5 658,-121.5 658,-121.5 347,-121.5 347,-121.5 341,-121.5 335,-115.5 335,-109.5 335,-109.5 335,-12.5 335,-12.5 335,-6.5 341,-0.5 347,-0.5"/>
<text text-anchor="middle" x="502.5" y="-106.3" font-family="Times,serif" font-size="14.00">UserInformation</text>
<polyline fill="none" stroke="black" points="335,-98.5 670,-98.5 "/>
<text text-anchor="start" x="343" y="-83.3" font-family="Times,serif" font-size="14.00">id :bigint</text>
<text text-anchor="start" x="343" y="-68.3" font-family="Times,serif" font-size="14.00">user_id :bigint</text>
<text text-anchor="start" x="343" y="-53.3" font-family="Times,serif" font-size="14.00">full_name :character varying</text>
<text text-anchor="start" x="343" y="-38.3" font-family="Times,serif" font-size="14.00">phone_number :character varying</text>
<text text-anchor="start" x="343" y="-23.3" font-family="Times,serif" font-size="14.00">created_at :timestamp(6) without time zone</text>
<text text-anchor="start" x="343" y="-8.3" font-family="Times,serif" font-size="14.00">updated_at :timestamp(6) without time zone</text>
</g>
<!-- Admin&#45;&gt;UserInformation -->
<g id="edge2" class="edge">
<title>Admin&#45;&gt;UserInformation</title>
<path fill="none" stroke="#c30ff0" d="M829.65,-793.57C790.65,-775.86 749.92,-759.15 710.5,-746 629.3,-718.91 576.86,-774.28 521.5,-709 484.89,-665.84 494.13,-289.95 499.73,-131.73"/>
<polygon fill="#c30ff0" stroke="#c30ff0" points="829.9,-793.69 837.12,-801.94 834.45,-795.77 839,-797.85 839,-797.85 839,-797.85 834.45,-795.77 840.87,-793.76 829.9,-793.69 829.9,-793.69"/>
<polygon fill="#c30ff0" stroke="#c30ff0" points="499.74,-131.62 504.59,-121.79 499.92,-126.62 500.1,-121.63 500.1,-121.63 500.1,-121.63 499.92,-126.62 495.6,-121.47 499.74,-131.62 499.74,-131.62"/>
</g>
<!-- UserPatner -->
<g id="node15" class="node">
<title>UserPatner</title>
<path fill="none" stroke="black" d="M1263,-8C1263,-8 1574,-8 1574,-8 1580,-8 1586,-14 1586,-20 1586,-20 1586,-102 1586,-102 1586,-108 1580,-114 1574,-114 1574,-114 1263,-114 1263,-114 1257,-114 1251,-108 1251,-102 1251,-102 1251,-20 1251,-20 1251,-14 1257,-8 1263,-8"/>
<text text-anchor="middle" x="1418.5" y="-98.8" font-family="Times,serif" font-size="14.00">UserPatner</text>
<polyline fill="none" stroke="black" points="1251,-91 1586,-91 "/>
<text text-anchor="start" x="1259" y="-75.8" font-family="Times,serif" font-size="14.00">id :bigint</text>
<text text-anchor="start" x="1259" y="-60.8" font-family="Times,serif" font-size="14.00">user_id :bigint</text>
<text text-anchor="start" x="1259" y="-45.8" font-family="Times,serif" font-size="14.00">patner_id :bigint</text>
<text text-anchor="start" x="1259" y="-30.8" font-family="Times,serif" font-size="14.00">created_at :timestamp(6) without time zone</text>
<text text-anchor="start" x="1259" y="-15.8" font-family="Times,serif" font-size="14.00">updated_at :timestamp(6) without time zone</text>
</g>
<!-- Admin&#45;&gt;UserPatner -->
<g id="edge3" class="edge">
<title>Admin&#45;&gt;UserPatner</title>
<path fill="none" stroke="#a56a2f" d="M1273.69,-746.23C1352.51,-723.54 1536.63,-758.46 1580.5,-709 1664.41,-614.41 1551.2,-289.75 1490.5,-159 1484.71,-146.52 1477.16,-134.08 1469.13,-122.46"/>
<polygon fill="#a56a2f" stroke="#a56a2f" points="1273.64,-746.24 1262.73,-745.2 1268.91,-747.85 1264.18,-749.46 1264.18,-749.46 1264.18,-749.46 1268.91,-747.85 1265.63,-753.72 1273.64,-746.24 1273.64,-746.24"/>
<polygon fill="#a56a2f" stroke="#a56a2f" points="1469.02,-122.3 1466.89,-111.55 1466.12,-118.23 1463.22,-114.16 1463.22,-114.16 1463.22,-114.16 1466.12,-118.23 1459.56,-116.77 1469.02,-122.3 1469.02,-122.3"/>
</g>
<!-- ApplicationRecord -->
<g id="node3" class="node">
<title>ApplicationRecord</title>
<ellipse fill="none" stroke="black" cx="1377.5" cy="-912" rx="95.58" ry="18"/>
<text text-anchor="middle" x="1377.5" y="-908.3" font-family="Times,serif" font-size="14.00">ApplicationRecord</text>
</g>
<!-- PayoutChannel -->
<g id="node11" class="node">
<title>PayoutChannel</title>
<path fill="none" stroke="black" d="M543,-257C543,-257 854,-257 854,-257 860,-257 866,-263 866,-269 866,-269 866,-381 866,-381 866,-387 860,-393 854,-393 854,-393 543,-393 543,-393 537,-393 531,-387 531,-381 531,-381 531,-269 531,-269 531,-263 537,-257 543,-257"/>
<text text-anchor="middle" x="698.5" y="-377.8" font-family="Times,serif" font-size="14.00">PayoutChannel</text>
<polyline fill="none" stroke="black" points="531,-370 866,-370 "/>
<text text-anchor="start" x="539" y="-354.8" font-family="Times,serif" font-size="14.00">id :bigint</text>
<text text-anchor="start" x="539" y="-339.8" font-family="Times,serif" font-size="14.00">name :character varying</text>
<text text-anchor="start" x="539" y="-324.8" font-family="Times,serif" font-size="14.00">code :character varying</text>
<text text-anchor="start" x="539" y="-309.8" font-family="Times,serif" font-size="14.00">payout_type :character varying</text>
<text text-anchor="start" x="539" y="-294.8" font-family="Times,serif" font-size="14.00">active :boolean</text>
<text text-anchor="start" x="539" y="-279.8" font-family="Times,serif" font-size="14.00">created_at :timestamp(6) without time zone</text>
<text text-anchor="start" x="539" y="-264.8" font-family="Times,serif" font-size="14.00">updated_at :timestamp(6) without time zone</text>
</g>
<!-- BankAccount&#45;&gt;PayoutChannel -->
<g id="edge7" class="edge">
<title>BankAccount&#45;&gt;PayoutChannel</title>
<path fill="none" stroke="#f9b969" d="M698.5,-546.86C698.5,-502.63 698.5,-447.39 698.5,-403.23"/>
<polygon fill="#f9b969" stroke="#f9b969" points="698.5,-547.14 694,-557.14 698.5,-552.14 698.5,-557.14 698.5,-557.14 698.5,-557.14 698.5,-552.14 703,-557.14 698.5,-547.14 698.5,-547.14"/>
<polygon fill="#f9b969" stroke="#f9b969" points="698.5,-403.12 703,-393.12 698.5,-398.12 698.5,-393.12 698.5,-393.12 698.5,-393.12 698.5,-398.12 694,-393.12 698.5,-403.12 698.5,-403.12"/>
</g>
<!-- User -->
<g id="node13" class="node">
<title>User</title>
<path fill="none" stroke="black" d="M1043,-159.5C1043,-159.5 1444,-159.5 1444,-159.5 1450,-159.5 1456,-165.5 1456,-171.5 1456,-171.5 1456,-478.5 1456,-478.5 1456,-484.5 1450,-490.5 1444,-490.5 1444,-490.5 1043,-490.5 1043,-490.5 1037,-490.5 1031,-484.5 1031,-478.5 1031,-478.5 1031,-171.5 1031,-171.5 1031,-165.5 1037,-159.5 1043,-159.5"/>
<text text-anchor="middle" x="1243.5" y="-475.3" font-family="Times,serif" font-size="14.00">User</text>
<polyline fill="none" stroke="black" points="1031,-467.5 1456,-467.5 "/>
<text text-anchor="start" x="1039" y="-452.3" font-family="Times,serif" font-size="14.00">id :bigint</text>
<text text-anchor="start" x="1039" y="-437.3" font-family="Times,serif" font-size="14.00">email :character varying</text>
<text text-anchor="start" x="1039" y="-422.3" font-family="Times,serif" font-size="14.00">encrypted_password :character varying</text>
<text text-anchor="start" x="1039" y="-407.3" font-family="Times,serif" font-size="14.00">reset_password_token :character varying</text>
<text text-anchor="start" x="1039" y="-392.3" font-family="Times,serif" font-size="14.00">reset_password_sent_at :timestamp(6) without time zone</text>
<text text-anchor="start" x="1039" y="-377.3" font-family="Times,serif" font-size="14.00">remember_created_at :timestamp(6) without time zone</text>
<text text-anchor="start" x="1039" y="-362.3" font-family="Times,serif" font-size="14.00">sign_in_count :integer</text>
<text text-anchor="start" x="1039" y="-347.3" font-family="Times,serif" font-size="14.00">current_sign_in_at :timestamp(6) without time zone</text>
<text text-anchor="start" x="1039" y="-332.3" font-family="Times,serif" font-size="14.00">last_sign_in_at :timestamp(6) without time zone</text>
<text text-anchor="start" x="1039" y="-317.3" font-family="Times,serif" font-size="14.00">current_sign_in_ip :character varying</text>
<text text-anchor="start" x="1039" y="-302.3" font-family="Times,serif" font-size="14.00">last_sign_in_ip :character varying</text>
<text text-anchor="start" x="1039" y="-287.3" font-family="Times,serif" font-size="14.00">confirmation_token :character varying</text>
<text text-anchor="start" x="1039" y="-272.3" font-family="Times,serif" font-size="14.00">confirmed_at :timestamp(6) without time zone</text>
<text text-anchor="start" x="1039" y="-257.3" font-family="Times,serif" font-size="14.00">confirmation_sent_at :timestamp(6) without time zone</text>
<text text-anchor="start" x="1039" y="-242.3" font-family="Times,serif" font-size="14.00">unconfirmed_email :character varying</text>
<text text-anchor="start" x="1039" y="-227.3" font-family="Times,serif" font-size="14.00">failed_attempts :integer</text>
<text text-anchor="start" x="1039" y="-212.3" font-family="Times,serif" font-size="14.00">unlock_token :character varying</text>
<text text-anchor="start" x="1039" y="-197.3" font-family="Times,serif" font-size="14.00">locked_at :timestamp(6) without time zone</text>
<text text-anchor="start" x="1039" y="-182.3" font-family="Times,serif" font-size="14.00">created_at :timestamp(6) without time zone</text>
<text text-anchor="start" x="1039" y="-167.3" font-family="Times,serif" font-size="14.00">updated_at :timestamp(6) without time zone</text>
</g>
<!-- BankAccount&#45;&gt;User -->
<g id="edge6" class="edge">
<title>BankAccount&#45;&gt;User</title>
<path fill="none" stroke="#c3cc34" d="M847.61,-553.28C856.67,-549.36 865.68,-545.58 874.5,-542 936.08,-517.04 958.94,-522.91 1021.64,-491.26"/>
<polygon fill="#c3cc34" stroke="#c3cc34" points="847.33,-553.4 836.37,-553.27 842.75,-555.4 838.16,-557.39 838.16,-557.39 838.16,-557.39 842.75,-555.4 839.96,-561.52 847.33,-553.4 847.33,-553.4"/>
<polygon fill="#c3cc34" stroke="#c3cc34" points="1021.88,-491.14 1032.83,-490.54 1026.32,-488.84 1030.76,-486.54 1030.76,-486.54 1030.76,-486.54 1026.32,-488.84 1028.69,-482.54 1021.88,-491.14 1021.88,-491.14"/>
</g>
<!-- Declare -->
<g id="node5" class="node">
<title>Declare</title>
<path fill="none" stroke="black" d="M1641,-542.5C1641,-542.5 1952,-542.5 1952,-542.5 1958,-542.5 1964,-548.5 1964,-554.5 1964,-554.5 1964,-696.5 1964,-696.5 1964,-702.5 1958,-708.5 1952,-708.5 1952,-708.5 1641,-708.5 1641,-708.5 1635,-708.5 1629,-702.5 1629,-696.5 1629,-696.5 1629,-554.5 1629,-554.5 1629,-548.5 1635,-542.5 1641,-542.5"/>
<text text-anchor="middle" x="1796.5" y="-693.3" font-family="Times,serif" font-size="14.00">Declare</text>
<polyline fill="none" stroke="black" points="1629,-685.5 1964,-685.5 "/>
<text text-anchor="start" x="1637" y="-670.3" font-family="Times,serif" font-size="14.00">id :bigint</text>
<text text-anchor="start" x="1637" y="-655.3" font-family="Times,serif" font-size="14.00">user_id :bigint</text>
<text text-anchor="start" x="1637" y="-640.3" font-family="Times,serif" font-size="14.00">declare_category_id :bigint</text>
<text text-anchor="start" x="1637" y="-625.3" font-family="Times,serif" font-size="14.00">status :integer</text>
<text text-anchor="start" x="1637" y="-610.3" font-family="Times,serif" font-size="14.00">amount :numeric(16,2)</text>
<text text-anchor="start" x="1637" y="-595.3" font-family="Times,serif" font-size="14.00">declare_proof :character varying</text>
<text text-anchor="start" x="1637" y="-580.3" font-family="Times,serif" font-size="14.00">created_at :timestamp(6) without time zone</text>
<text text-anchor="start" x="1637" y="-565.3" font-family="Times,serif" font-size="14.00">updated_at :timestamp(6) without time zone</text>
<text text-anchor="start" x="1637" y="-550.3" font-family="Times,serif" font-size="14.00">bank_account_id :bigint</text>
</g>
<!-- DeclareCategory -->
<g id="node6" class="node">
<title>DeclareCategory</title>
<path fill="none" stroke="black" d="M1641,-279.5C1641,-279.5 1952,-279.5 1952,-279.5 1958,-279.5 1964,-285.5 1964,-291.5 1964,-291.5 1964,-358.5 1964,-358.5 1964,-364.5 1958,-370.5 1952,-370.5 1952,-370.5 1641,-370.5 1641,-370.5 1635,-370.5 1629,-364.5 1629,-358.5 1629,-358.5 1629,-291.5 1629,-291.5 1629,-285.5 1635,-279.5 1641,-279.5"/>
<text text-anchor="middle" x="1796.5" y="-355.3" font-family="Times,serif" font-size="14.00">DeclareCategory</text>
<polyline fill="none" stroke="black" points="1629,-347.5 1964,-347.5 "/>
<text text-anchor="start" x="1637" y="-332.3" font-family="Times,serif" font-size="14.00">id :bigint</text>
<text text-anchor="start" x="1637" y="-317.3" font-family="Times,serif" font-size="14.00">name :character varying</text>
<text text-anchor="start" x="1637" y="-302.3" font-family="Times,serif" font-size="14.00">created_at :timestamp(6) without time zone</text>
<text text-anchor="start" x="1637" y="-287.3" font-family="Times,serif" font-size="14.00">updated_at :timestamp(6) without time zone</text>
</g>
<!-- Declare&#45;&gt;DeclareCategory -->
<g id="edge10" class="edge">
<title>Declare&#45;&gt;DeclareCategory</title>
<path fill="none" stroke="#16cd4c" d="M1796.5,-531.92C1796.5,-482.35 1796.5,-422.98 1796.5,-380.75"/>
<polygon fill="#16cd4c" stroke="#16cd4c" points="1796.5,-532.14 1792,-542.14 1796.5,-537.14 1796.5,-542.14 1796.5,-542.14 1796.5,-542.14 1796.5,-537.14 1801,-542.14 1796.5,-532.14 1796.5,-532.14"/>
<polygon fill="#16cd4c" stroke="#16cd4c" points="1796.5,-380.67 1801,-370.67 1796.5,-375.67 1796.5,-370.67 1796.5,-370.67 1796.5,-370.67 1796.5,-375.67 1792,-370.67 1796.5,-380.67 1796.5,-380.67"/>
</g>
<!-- Declare&#45;&gt;User -->
<g id="edge9" class="edge">
<title>Declare&#45;&gt;User</title>
<path fill="none" stroke="#90f28d" d="M1635.37,-537.53C1582.2,-508.82 1522.09,-476.38 1465.21,-445.67"/>
<polygon fill="#90f28d" stroke="#90f28d" points="1635.49,-537.59 1642.16,-546.3 1639.89,-539.97 1644.29,-542.34 1644.29,-542.34 1644.29,-542.34 1639.89,-539.97 1646.43,-538.38 1635.49,-537.59 1635.49,-537.59"/>
<polygon fill="#90f28d" stroke="#90f28d" points="1464.91,-445.51 1458.24,-436.8 1460.51,-443.14 1456.11,-440.76 1456.11,-440.76 1456.11,-440.76 1460.51,-443.14 1453.97,-444.72 1464.91,-445.51 1464.91,-445.51"/>
</g>
<!-- ActionText::RichText -->
<g id="node16" class="node">
<title>ActionText::RichText</title>
<ellipse fill="none" stroke="black" cx="2088.5" cy="-325" rx="106.68" ry="18"/>
<text text-anchor="middle" x="2088.5" y="-321.3" font-family="Times,serif" font-size="14.00">ActionText::RichText</text>
</g>
<!-- Declare&#45;&gt;ActionText::RichText -->
<g id="edge8" class="edge">
<title>Declare&#45;&gt;ActionText::RichText</title>
<path fill="none" stroke="#4cdeab" d="M1924.48,-535.75C1941.71,-521.61 1958.57,-506.51 1973.5,-491 2015.79,-447.09 2053.88,-386.33 2073.84,-352.13"/>
<polygon fill="#4cdeab" stroke="#4cdeab" points="1924.31,-535.88 1913.71,-538.67 1920.43,-539.02 1916.54,-542.17 1916.54,-542.17 1916.54,-542.17 1920.43,-539.02 1919.37,-545.67 1924.31,-535.88 1924.31,-535.88"/>
<polygon fill="#4cdeab" stroke="#4cdeab" points="2073.98,-351.88 2082.87,-345.47 2076.47,-347.55 2078.97,-343.22 2078.97,-343.22 2078.97,-343.22 2076.47,-347.55 2075.07,-340.97 2073.98,-351.88 2073.98,-351.88"/>
<text text-anchor="middle" x="2027" y="-512.8" font-family="Times,serif" font-size="14.00">rich_text_description</text>
</g>
<!-- Leader -->
<g id="node7" class="node">
<title>Leader</title>
<path fill="none" stroke="black" d="M289,-746.5C289,-746.5 690,-746.5 690,-746.5 696,-746.5 702,-752.5 702,-758.5 702,-758.5 702,-1065.5 702,-1065.5 702,-1071.5 696,-1077.5 690,-1077.5 690,-1077.5 289,-1077.5 289,-1077.5 283,-1077.5 277,-1071.5 277,-1065.5 277,-1065.5 277,-758.5 277,-758.5 277,-752.5 283,-746.5 289,-746.5"/>
<text text-anchor="middle" x="489.5" y="-1062.3" font-family="Times,serif" font-size="14.00">Leader</text>
<polyline fill="none" stroke="black" points="277,-1054.5 702,-1054.5 "/>
<text text-anchor="start" x="285" y="-1039.3" font-family="Times,serif" font-size="14.00">id :bigint</text>
<text text-anchor="start" x="285" y="-1024.3" font-family="Times,serif" font-size="14.00">email :character varying</text>
<text text-anchor="start" x="285" y="-1009.3" font-family="Times,serif" font-size="14.00">encrypted_password :character varying</text>
<text text-anchor="start" x="285" y="-994.3" font-family="Times,serif" font-size="14.00">reset_password_token :character varying</text>
<text text-anchor="start" x="285" y="-979.3" font-family="Times,serif" font-size="14.00">reset_password_sent_at :timestamp(6) without time zone</text>
<text text-anchor="start" x="285" y="-964.3" font-family="Times,serif" font-size="14.00">remember_created_at :timestamp(6) without time zone</text>
<text text-anchor="start" x="285" y="-949.3" font-family="Times,serif" font-size="14.00">sign_in_count :integer</text>
<text text-anchor="start" x="285" y="-934.3" font-family="Times,serif" font-size="14.00">current_sign_in_at :timestamp(6) without time zone</text>
<text text-anchor="start" x="285" y="-919.3" font-family="Times,serif" font-size="14.00">last_sign_in_at :timestamp(6) without time zone</text>
<text text-anchor="start" x="285" y="-904.3" font-family="Times,serif" font-size="14.00">current_sign_in_ip :character varying</text>
<text text-anchor="start" x="285" y="-889.3" font-family="Times,serif" font-size="14.00">last_sign_in_ip :character varying</text>
<text text-anchor="start" x="285" y="-874.3" font-family="Times,serif" font-size="14.00">confirmation_token :character varying</text>
<text text-anchor="start" x="285" y="-859.3" font-family="Times,serif" font-size="14.00">confirmed_at :timestamp(6) without time zone</text>
<text text-anchor="start" x="285" y="-844.3" font-family="Times,serif" font-size="14.00">confirmation_sent_at :timestamp(6) without time zone</text>
<text text-anchor="start" x="285" y="-829.3" font-family="Times,serif" font-size="14.00">unconfirmed_email :character varying</text>
<text text-anchor="start" x="285" y="-814.3" font-family="Times,serif" font-size="14.00">failed_attempts :integer</text>
<text text-anchor="start" x="285" y="-799.3" font-family="Times,serif" font-size="14.00">unlock_token :character varying</text>
<text text-anchor="start" x="285" y="-784.3" font-family="Times,serif" font-size="14.00">locked_at :timestamp(6) without time zone</text>
<text text-anchor="start" x="285" y="-769.3" font-family="Times,serif" font-size="14.00">created_at :timestamp(6) without time zone</text>
<text text-anchor="start" x="285" y="-754.3" font-family="Times,serif" font-size="14.00">updated_at :timestamp(6) without time zone</text>
</g>
<!-- Leader&#45;&gt;BankAccount -->
<g id="edge15" class="edge">
<title>Leader&#45;&gt;BankAccount</title>
<path fill="none" stroke="#a4e4e5" d="M616.51,-738.1C625.76,-725.52 634.76,-713.26 643.21,-701.77"/>
<polygon fill="#a4e4e5" stroke="#a4e4e5" points="616.39,-738.27 606.84,-743.66 613.43,-742.3 610.47,-746.33 610.47,-746.33 610.47,-746.33 613.43,-742.3 614.1,-748.99 616.39,-738.27 616.39,-738.27"/>
<polygon fill="#a4e4e5" stroke="#a4e4e5" points="643.33,-701.59 652.88,-696.2 646.29,-697.57 649.25,-693.54 649.25,-693.54 649.25,-693.54 646.29,-697.57 645.63,-690.87 643.33,-701.59 643.33,-701.59"/>
</g>
<!-- Leader&#45;&gt;Patner -->
<g id="edge14" class="edge">
<title>Leader&#45;&gt;Patner</title>
<path fill="none" stroke="#0fbcfc" d="M711.35,-789.4C749.84,-772.39 790.16,-756.98 829.5,-746 1000.61,-698.23 1056.02,-755.43 1227.5,-709 1251.48,-702.51 1276.23,-692.97 1299.35,-682.67"/>
<polygon fill="#0fbcfc" stroke="#0fbcfc" points="711.26,-789.45 700.29,-789.42 706.69,-791.49 702.13,-793.53 702.13,-793.53 702.13,-793.53 706.69,-791.49 703.97,-797.64 711.26,-789.45 711.26,-789.45"/>
<polygon fill="#0fbcfc" stroke="#0fbcfc" points="1299.36,-682.66 1310.33,-682.63 1303.91,-680.6 1308.47,-678.53 1308.47,-678.53 1308.47,-678.53 1303.91,-680.6 1306.6,-674.43 1299.36,-682.66 1299.36,-682.66"/>
</g>
<!-- Leader&#45;&gt;Role -->
<g id="edge11" class="edge">
<title>Leader&#45;&gt;Role</title>
<path fill="none" stroke="#d413bf" d="M711.59,-798.57C783.95,-761.94 861.75,-722.56 924.64,-690.72"/>
<polygon fill="#d413bf" stroke="#d413bf" points="711.29,-798.72 700.34,-799.23 706.83,-800.98 702.37,-803.24 702.37,-803.24 702.37,-803.24 706.83,-800.98 704.4,-807.25 711.29,-798.72 711.29,-798.72"/>
<polygon fill="#d413bf" stroke="#d413bf" points="924.89,-690.6 935.84,-690.09 929.35,-688.34 933.81,-686.08 933.81,-686.08 933.81,-686.08 929.35,-688.34 931.78,-682.06 924.89,-690.6 924.89,-690.6"/>
</g>
<!-- Leader&#45;&gt;UserInformation -->
<g id="edge12" class="edge">
<title>Leader&#45;&gt;UserInformation</title>
<path fill="none" stroke="#0c904a" d="M451.42,-736.18C451.09,-733.44 450.79,-730.71 450.5,-728 424,-476.5 388.9,-404.27 450.5,-159 452.87,-149.55 456.37,-140.01 460.44,-130.8"/>
<polygon fill="#0c904a" stroke="#0c904a" points="451.43,-736.24 448.24,-746.73 452.07,-741.2 452.71,-746.16 452.71,-746.16 452.71,-746.16 452.07,-741.2 457.17,-745.59 451.43,-736.24 451.43,-736.24"/>
<polygon fill="#0c904a" stroke="#0c904a" points="460.45,-130.78 468.76,-123.62 462.56,-126.25 464.68,-121.72 464.68,-121.72 464.68,-121.72 462.56,-126.25 460.6,-119.81 460.45,-130.78 460.45,-130.78"/>
</g>
<!-- Leader&#45;&gt;UserPatner -->
<g id="edge13" class="edge">
<title>Leader&#45;&gt;UserPatner</title>
<path fill="none" stroke="#47c7b5" d="M471.44,-736.35C455.39,-540.05 444.87,-238.34 521.5,-159 546.18,-133.45 986.52,-95.39 1240.88,-75.39"/>
<polygon fill="#47c7b5" stroke="#47c7b5" points="471.46,-736.53 467.8,-746.87 471.87,-741.51 472.29,-746.49 472.29,-746.49 472.29,-746.49 471.87,-741.51 476.77,-746.12 471.46,-736.53 471.46,-736.53"/>
<polygon fill="#47c7b5" stroke="#47c7b5" points="1241,-75.38 1251.33,-79.08 1245.99,-74.98 1250.97,-74.59 1250.97,-74.59 1250.97,-74.59 1245.99,-74.98 1250.62,-70.11 1241,-75.38 1241,-75.38"/>
</g>
<!-- Memo -->
<g id="node8" class="node">
<title>Memo</title>
<path fill="none" stroke="black" d="M1994,-542.5C1994,-542.5 2305,-542.5 2305,-542.5 2311,-542.5 2317,-548.5 2317,-554.5 2317,-554.5 2317,-696.5 2317,-696.5 2317,-702.5 2311,-708.5 2305,-708.5 2305,-708.5 1994,-708.5 1994,-708.5 1988,-708.5 1982,-702.5 1982,-696.5 1982,-696.5 1982,-554.5 1982,-554.5 1982,-548.5 1988,-542.5 1994,-542.5"/>
<text text-anchor="middle" x="2149.5" y="-693.3" font-family="Times,serif" font-size="14.00">Memo</text>
<polyline fill="none" stroke="black" points="1982,-685.5 2317,-685.5 "/>
<text text-anchor="start" x="1990" y="-670.3" font-family="Times,serif" font-size="14.00">id :bigint</text>
<text text-anchor="start" x="1990" y="-655.3" font-family="Times,serif" font-size="14.00">user_id :bigint</text>
<text text-anchor="start" x="1990" y="-640.3" font-family="Times,serif" font-size="14.00">memo_category_id :bigint</text>
<text text-anchor="start" x="1990" y="-625.3" font-family="Times,serif" font-size="14.00">status :integer</text>
<text text-anchor="start" x="1990" y="-610.3" font-family="Times,serif" font-size="14.00">amount :numeric(16,2)</text>
<text text-anchor="start" x="1990" y="-595.3" font-family="Times,serif" font-size="14.00">memo_proof :character varying</text>
<text text-anchor="start" x="1990" y="-580.3" font-family="Times,serif" font-size="14.00">created_at :timestamp(6) without time zone</text>
<text text-anchor="start" x="1990" y="-565.3" font-family="Times,serif" font-size="14.00">updated_at :timestamp(6) without time zone</text>
<text text-anchor="start" x="1990" y="-550.3" font-family="Times,serif" font-size="14.00">bank_account_id :bigint</text>
</g>
<!-- MemoCategory -->
<g id="node9" class="node">
<title>MemoCategory</title>
<path fill="none" stroke="black" d="M2225,-279.5C2225,-279.5 2536,-279.5 2536,-279.5 2542,-279.5 2548,-285.5 2548,-291.5 2548,-291.5 2548,-358.5 2548,-358.5 2548,-364.5 2542,-370.5 2536,-370.5 2536,-370.5 2225,-370.5 2225,-370.5 2219,-370.5 2213,-364.5 2213,-358.5 2213,-358.5 2213,-291.5 2213,-291.5 2213,-285.5 2219,-279.5 2225,-279.5"/>
<text text-anchor="middle" x="2380.5" y="-355.3" font-family="Times,serif" font-size="14.00">MemoCategory</text>
<polyline fill="none" stroke="black" points="2213,-347.5 2548,-347.5 "/>
<text text-anchor="start" x="2221" y="-332.3" font-family="Times,serif" font-size="14.00">id :bigint</text>
<text text-anchor="start" x="2221" y="-317.3" font-family="Times,serif" font-size="14.00">name :character varying</text>
<text text-anchor="start" x="2221" y="-302.3" font-family="Times,serif" font-size="14.00">created_at :timestamp(6) without time zone</text>
<text text-anchor="start" x="2221" y="-287.3" font-family="Times,serif" font-size="14.00">updated_at :timestamp(6) without time zone</text>
</g>
<!-- Memo&#45;&gt;MemoCategory -->
<g id="edge18" class="edge">
<title>Memo&#45;&gt;MemoCategory</title>
<path fill="none" stroke="#2da56e" d="M2272.84,-534.94C2276.2,-531.35 2279.43,-527.71 2282.5,-524 2318.25,-480.84 2345.11,-422.44 2361.59,-380.26"/>
<polygon fill="#2da56e" stroke="#2da56e" points="2272.75,-535.03 2262.55,-539.06 2269.26,-538.61 2265.78,-542.2 2265.78,-542.2 2265.78,-542.2 2269.26,-538.61 2269,-545.33 2272.75,-535.03 2272.75,-535.03"/>
<polygon fill="#2da56e" stroke="#2da56e" points="2361.67,-380.05 2369.45,-372.33 2363.46,-375.39 2365.25,-370.72 2365.25,-370.72 2365.25,-370.72 2363.46,-375.39 2361.05,-369.11 2361.67,-380.05 2361.67,-380.05"/>
</g>
<!-- Memo&#45;&gt;User -->
<g id="edge17" class="edge">
<title>Memo&#45;&gt;User</title>
<path fill="none" stroke="#60a253" d="M1972.04,-541.72C1819.16,-497.97 1769.21,-533.77 1619.5,-491 1568.36,-476.39 1515.1,-456.28 1465.29,-435.12"/>
<polygon fill="#60a253" stroke="#60a253" points="1972.18,-541.76 1980.51,-548.89 1976.98,-543.17 1981.77,-544.57 1981.77,-544.57 1981.77,-544.57 1976.98,-543.17 1983.04,-540.25 1972.18,-541.76 1972.18,-541.76"/>
<polygon fill="#60a253" stroke="#60a253" points="1465.22,-435.09 1457.8,-427.02 1460.62,-433.12 1456.03,-431.16 1456.03,-431.16 1456.03,-431.16 1460.62,-433.12 1454.26,-435.29 1465.22,-435.09 1465.22,-435.09"/>
</g>
<!-- Memo&#45;&gt;ActionText::RichText -->
<g id="edge16" class="edge">
<title>Memo&#45;&gt;ActionText::RichText</title>
<path fill="none" stroke="#5040ca" d="M2130.67,-532.34C2118.02,-470.44 2102.22,-393.12 2094.02,-352.99"/>
<polygon fill="#5040ca" stroke="#5040ca" points="2130.67,-532.35 2128.26,-543.04 2131.67,-537.24 2132.67,-542.14 2132.67,-542.14 2132.67,-542.14 2131.67,-537.24 2137.08,-541.24 2130.67,-532.35 2130.67,-532.35"/>
<polygon fill="#5040ca" stroke="#5040ca" points="2094.01,-352.96 2096.42,-342.26 2093.01,-348.06 2092.01,-343.16 2092.01,-343.16 2092.01,-343.16 2093.01,-348.06 2087.6,-344.06 2094.01,-352.96 2094.01,-352.96"/>
<text text-anchor="middle" x="2203" y="-512.8" font-family="Times,serif" font-size="14.00">rich_text_description</text>
</g>
<!-- Patner&#45;&gt;User -->
<g id="edge20" class="edge">
<title>Patner&#45;&gt;User</title>
<path fill="none" stroke="#3496b8" d="M1371.44,-563.2C1361.21,-544.24 1349.39,-522.33 1337.16,-499.65"/>
<polygon fill="#3496b8" stroke="#3496b8" points="1371.52,-563.36 1372.31,-574.3 1373.9,-567.76 1376.27,-572.16 1376.27,-572.16 1376.27,-572.16 1373.9,-567.76 1380.23,-570.03 1371.52,-563.36 1371.52,-563.36"/>
<polygon fill="#3496b8" stroke="#3496b8" points="1337.02,-499.38 1336.23,-488.44 1334.64,-494.98 1332.27,-490.58 1332.27,-490.58 1332.27,-490.58 1334.64,-494.98 1328.31,-492.72 1337.02,-499.38 1337.02,-499.38"/>
</g>
<!-- Patner&#45;&gt;UserPatner -->
<g id="edge19" class="edge">
<title>Patner&#45;&gt;UserPatner</title>
<path fill="none" stroke="#3b6012" d="M1438.61,-563.12C1449.08,-541.07 1459.23,-515.57 1464.5,-491 1495.43,-346.72 1496.9,-302.95 1464.5,-159 1461.8,-147.02 1457.45,-134.78 1452.47,-123.21"/>
<polygon fill="#3b6012" stroke="#3b6012" points="1438.49,-563.36 1430.07,-570.38 1436.3,-567.86 1434.11,-572.35 1434.11,-572.35 1434.11,-572.35 1436.3,-567.86 1438.16,-574.32 1438.49,-563.36 1438.49,-563.36"/>
<polygon fill="#3b6012" stroke="#3b6012" points="1452.46,-123.21 1452.46,-112.24 1450.41,-118.65 1448.36,-114.09 1448.36,-114.09 1448.36,-114.09 1450.41,-118.65 1444.25,-115.94 1452.46,-123.21 1452.46,-123.21"/>
</g>
<!-- Role&#45;&gt;User -->
<g id="edge21" class="edge">
<title>Role&#45;&gt;User</title>
<path fill="none" stroke="#7fa71f" d="M1095.43,-556.2C1106.59,-538.85 1119.1,-519.4 1131.99,-499.37"/>
<polygon fill="#7fa71f" stroke="#7fa71f" points="1095.3,-556.4 1086.11,-562.38 1092.6,-560.61 1089.89,-564.81 1089.89,-564.81 1089.89,-564.81 1092.6,-560.61 1093.68,-567.25 1095.3,-556.4 1095.3,-556.4"/>
<polygon fill="#7fa71f" stroke="#7fa71f" points="1132.12,-499.16 1141.32,-493.18 1134.83,-494.95 1137.53,-490.75 1137.53,-490.75 1137.53,-490.75 1134.83,-494.95 1133.75,-488.31 1132.12,-499.16 1132.12,-499.16"/>
</g>
<!-- Resource -->
<g id="node17" class="node">
<title>Resource</title>
<ellipse fill="none" stroke="black" cx="959.5" cy="-325" rx="53.89" ry="18"/>
<text text-anchor="middle" x="959.5" y="-321.3" font-family="Times,serif" font-size="14.00">Resource</text>
</g>
<!-- Role&#45;&gt;Resource -->
<g id="edge22" class="edge">
<title>Role&#45;&gt;Resource</title>
<path fill="none" stroke="#8fa2a5" d="M1030.15,-555.22C1010.24,-490.64 981.61,-397.72 967.7,-352.6"/>
<polygon fill="#8fa2a5" stroke="#8fa2a5" points="1030.16,-555.26 1028.8,-566.14 1031.63,-560.03 1033.1,-564.81 1033.1,-564.81 1033.1,-564.81 1031.63,-560.03 1037.4,-563.49 1030.16,-555.26 1030.16,-555.26"/>
<polygon fill="#8fa2a5" stroke="#8fa2a5" points="967.67,-352.52 969.03,-341.64 966.2,-347.74 964.73,-342.96 964.73,-342.96 964.73,-342.96 966.2,-347.74 960.43,-344.29 967.67,-352.52 967.67,-352.52"/>
</g>
<!-- User&#45;&gt;UserInformation -->
<g id="edge23" class="edge">
<title>User&#45;&gt;UserInformation</title>
<path fill="none" stroke="#6b0fd4" d="M1021.19,-158.61C907.38,-110.37 780.59,-86.98 680.04,-74.92"/>
<polygon fill="#6b0fd4" stroke="#6b0fd4" points="1021.53,-158.76 1028.93,-166.85 1026.12,-160.74 1030.72,-162.72 1030.72,-162.72 1030.72,-162.72 1026.12,-160.74 1032.5,-158.59 1021.53,-158.76 1021.53,-158.76"/>
<polygon fill="#6b0fd4" stroke="#6b0fd4" points="680.02,-74.92 670.61,-69.28 675.05,-74.34 670.09,-73.75 670.09,-73.75 670.09,-73.75 675.05,-74.34 669.56,-78.22 680.02,-74.92 680.02,-74.92"/>
</g>
<!-- User&#45;&gt;UserPatner -->
<g id="edge24" class="edge">
<title>User&#45;&gt;UserPatner</title>
<path fill="none" stroke="#9d582b" d="M1359.33,-150.59C1365.82,-140.87 1372.08,-131.5 1377.94,-122.73"/>
<polygon fill="#9d582b" stroke="#9d582b" points="1359.14,-150.87 1349.84,-156.69 1356.36,-155.03 1353.59,-159.19 1353.59,-159.19 1353.59,-159.19 1356.36,-155.03 1357.33,-161.69 1359.14,-150.87 1359.14,-150.87"/>
<polygon fill="#9d582b" stroke="#9d582b" points="1378.1,-122.48 1387.4,-116.67 1380.88,-118.33 1383.66,-114.17 1383.66,-114.17 1383.66,-114.17 1380.88,-118.33 1379.91,-111.67 1378.1,-122.48 1378.1,-122.48"/>
</g>
</g>
</svg>
